<?xml version="1.0" encoding="utf-8" standalone="no"?>
<!DOCTYPE svg PUBLIC "-//W3C//DTD SVG 1.1//EN"
  "http://www.w3.org/Graphics/SVG/1.1/DTD/svg11.dtd">
<svg height="288pt" version="1.1" viewBox="0 0 432 288" width="432pt" xmlns="http://www.w3.org/2000/svg" xmlns:xlink="http://www.w3.org/1999/xlink">
 <metadata>
  <rdf:RDF xmlns:cc="http://creativecommons.org/ns#" xmlns:dc="http://purl.org/dc/elements/1.1/" xmlns:rdf="http://www.w3.org/1999/02/22-rdf-syntax-ns#">
   <cc:Work>
    <dc:type rdf:resource="http://purl.org/dc/dcmitype/StillImage"/>
    <dc:date>2021-11-26T15:00:58.435524</dc:date>
    <dc:format>image/svg+xml</dc:format>
    <dc:creator>
     <cc:Agent>
      <dc:title>Matplotlib v3.4.2, https://matplotlib.org/</dc:title>
     </cc:Agent>
    </dc:creator>
   </cc:Work>
  </rdf:RDF>
 </metadata>
 <defs>
  <style type="text/css">*{stroke-linecap:butt;stroke-linejoin:round;}</style>
 </defs>
 <g id="figure_1">
  <g id="patch_1">
   <path d="M 0 288 
L 432 288 
L 432 0 
L 0 0 
z
" style="fill:none;"/>
  </g>
  <g id="axes_1">
   <g id="patch_2">
    <path d="M 54 252 
L 388.8 252 
L 388.8 34.56 
L 54 34.56 
z
" style="fill:#ffffff;"/>
   </g>
   <g id="PathCollection_1">
    <path clip-path="url(#p14fd4d5b9f)" d="M 95.85 114.782897 
L 109.8 114.782897 
L 123.75 114.782897 
L 127.284808 114.782897 
L 127.284808 114.025125 
L 127.284808 113.267353 
L 127.284808 112.50958 
L 127.284808 111.751808 
L 127.284808 110.994036 
L 127.284808 110.236263 
L 127.284808 109.478491 
L 127.284808 108.720719 
L 127.284808 107.962947 
L 127.284808 107.205174 
L 127.284808 106.447402 
L 127.284808 105.68963 
L 127.284808 104.931857 
L 127.284808 104.174085 
L 127.284808 103.416313 
L 127.284808 102.65854 
L 127.284808 101.900768 
L 127.284808 101.142996 
L 127.284808 100.385224 
L 127.284808 99.627451 
L 123.75 99.627451 
L 109.8 99.627451 
L 95.85 99.627451 
L 81.9 99.627451 
L 81.9 100.385224 
L 81.9 101.142996 
L 81.9 101.900768 
L 81.9 102.65854 
L 81.9 103.416313 
L 81.9 104.174085 
L 81.9 104.931857 
L 81.9 105.68963 
L 81.9 106.447402 
L 81.9 107.205174 
L 81.9 107.962947 
L 81.9 108.720719 
L 81.9 109.478491 
L 81.9 110.236263 
L 81.9 110.994036 
L 81.9 111.751808 
L 81.9 112.50958 
L 81.9 113.267353 
L 81.9 114.025125 
L 81.9 114.782897 
z
"/>
   </g>
   <g id="PathCollection_2">
    <path clip-path="url(#p14fd4d5b9f)" d="M 137.7 114.782897 
L 151.65 114.782897 
L 165.6 114.782897 
L 173.771398 114.782897 
L 173.771398 114.025125 
L 173.771398 113.267353 
L 173.771398 112.50958 
L 173.771398 111.751808 
L 173.771398 110.994036 
L 173.771398 110.236263 
L 173.771398 109.478491 
L 173.771398 108.720719 
L 173.771398 107.962947 
L 173.771398 107.205174 
L 173.771398 106.447402 
L 173.771398 105.68963 
L 173.771398 104.931857 
L 173.771398 104.174085 
L 173.771398 103.416313 
L 173.771398 102.65854 
L 173.771398 101.900768 
L 173.771398 101.142996 
L 173.771398 100.385224 
L 173.771398 99.627451 
L 165.6 99.627451 
L 151.65 99.627451 
L 137.7 99.627451 
L 127.284808 99.627451 
L 127.284808 100.385224 
L 127.284808 101.142996 
L 127.284808 101.900768 
L 127.284808 102.65854 
L 127.284808 103.416313 
L 127.284808 104.174085 
L 127.284808 104.931857 
L 127.284808 105.68963 
L 127.284808 106.447402 
L 127.284808 107.205174 
L 127.284808 107.962947 
L 127.284808 108.720719 
L 127.284808 109.478491 
L 127.284808 110.236263 
L 127.284808 110.994036 
L 127.284808 111.751808 
L 127.284808 112.50958 
L 127.284808 113.267353 
L 127.284808 114.025125 
L 127.284808 114.782897 
z
"/>
   </g>
   <g id="PathCollection_3">
    <path clip-path="url(#p14fd4d5b9f)" d="M 179.55 114.782897 
L 193.5 114.782897 
L 207.45 114.782897 
L 220.103999 114.782897 
L 220.103999 114.025125 
L 220.103999 113.267353 
L 220.103999 112.50958 
L 220.103999 111.751808 
L 220.103999 110.994036 
L 220.103999 110.236263 
L 220.103999 109.478491 
L 220.103999 108.720719 
L 220.103999 107.962947 
L 220.103999 107.205174 
L 220.103999 106.447402 
L 220.103999 105.68963 
L 220.103999 104.931857 
L 220.103999 104.174085 
L 220.103999 103.416313 
L 220.103999 102.65854 
L 220.103999 101.900768 
L 220.103999 101.142996 
L 220.103999 100.385224 
L 220.103999 99.627451 
L 207.45 99.627451 
L 193.5 99.627451 
L 179.55 99.627451 
L 173.771398 99.627451 
L 173.771398 100.385224 
L 173.771398 101.142996 
L 173.771398 101.900768 
L 173.771398 102.65854 
L 173.771398 103.416313 
L 173.771398 104.174085 
L 173.771398 104.931857 
L 173.771398 105.68963 
L 173.771398 106.447402 
L 173.771398 107.205174 
L 173.771398 107.962947 
L 173.771398 108.720719 
L 173.771398 109.478491 
L 173.771398 110.236263 
L 173.771398 110.994036 
L 173.771398 111.751808 
L 173.771398 112.50958 
L 173.771398 113.267353 
L 173.771398 114.025125 
L 173.771398 114.782897 
z
"/>
   </g>
   <g id="PathCollection_4">
    <path clip-path="url(#p14fd4d5b9f)" d="M 221.4 114.782897 
L 235.35 114.782897 
L 249.3 114.782897 
L 263.25 114.782897 
L 266.280705 114.782897 
L 266.280705 114.025125 
L 266.280705 113.267353 
L 266.280705 112.50958 
L 266.280705 111.751808 
L 266.280705 110.994036 
L 266.280705 110.236263 
L 266.280705 109.478491 
L 266.280705 108.720719 
L 266.280705 107.962947 
L 266.280705 107.205174 
L 266.280705 106.447402 
L 266.280705 105.68963 
L 266.280705 104.931857 
L 266.280705 104.174085 
L 266.280705 103.416313 
L 266.280705 102.65854 
L 266.280705 101.900768 
L 266.280705 101.142996 
L 266.280705 100.385224 
L 266.280705 99.627451 
L 263.25 99.627451 
L 249.3 99.627451 
L 235.35 99.627451 
L 221.4 99.627451 
L 220.103999 99.627451 
L 220.103999 100.385224 
L 220.103999 101.142996 
L 220.103999 101.900768 
L 220.103999 102.65854 
L 220.103999 103.416313 
L 220.103999 104.174085 
L 220.103999 104.931857 
L 220.103999 105.68963 
L 220.103999 106.447402 
L 220.103999 107.205174 
L 220.103999 107.962947 
L 220.103999 108.720719 
L 220.103999 109.478491 
L 220.103999 110.236263 
L 220.103999 110.994036 
L 220.103999 111.751808 
L 220.103999 112.50958 
L 220.103999 113.267353 
L 220.103999 114.025125 
L 220.103999 114.782897 
z
"/>
   </g>
   <g id="PathCollection_5">
    <path clip-path="url(#p14fd4d5b9f)" d="M 277.2 114.782897 
L 291.15 114.782897 
L 305.1 114.782897 
L 312.30455 114.782897 
L 312.30455 114.025125 
L 312.30455 113.267353 
L 312.30455 112.50958 
L 312.30455 111.751808 
L 312.30455 110.994036 
L 312.30455 110.236263 
L 312.30455 109.478491 
L 312.30455 108.720719 
L 312.30455 107.962947 
L 312.30455 107.205174 
L 312.30455 106.447402 
L 312.30455 105.68963 
L 312.30455 104.931857 
L 312.30455 104.174085 
L 312.30455 103.416313 
L 312.30455 102.65854 
L 312.30455 101.900768 
L 312.30455 101.142996 
L 312.30455 100.385224 
L 312.30455 99.627451 
L 305.1 99.627451 
L 291.15 99.627451 
L 277.2 99.627451 
L 266.280705 99.627451 
L 266.280705 100.385224 
L 266.280705 101.142996 
L 266.280705 101.900768 
L 266.280705 102.65854 
L 266.280705 103.416313 
L 266.280705 104.174085 
L 266.280705 104.931857 
L 266.280705 105.68963 
L 266.280705 106.447402 
L 266.280705 107.205174 
L 266.280705 107.962947 
L 266.280705 108.720719 
L 266.280705 109.478491 
L 266.280705 110.236263 
L 266.280705 110.994036 
L 266.280705 111.751808 
L 266.280705 112.50958 
L 266.280705 113.267353 
L 266.280705 114.025125 
L 266.280705 114.782897 
z
"/>
   </g>
   <g id="PathCollection_6">
    <path clip-path="url(#p14fd4d5b9f)" d="M 319.05 114.782897 
L 333 114.782897 
L 346.95 114.782897 
L 358.177954 114.782897 
L 358.177954 114.025125 
L 358.177954 113.267353 
L 358.177954 112.50958 
L 358.177954 111.751808 
L 358.177954 110.994036 
L 358.177954 110.236263 
L 358.177954 109.478491 
L 358.177954 108.720719 
L 358.177954 107.962947 
L 358.177954 107.205174 
L 358.177954 106.447402 
L 358.177954 105.68963 
L 358.177954 104.931857 
L 358.177954 104.174085 
L 358.177954 103.416313 
L 358.177954 102.65854 
L 358.177954 101.900768 
L 358.177954 101.142996 
L 358.177954 100.385224 
L 358.177954 99.627451 
L 346.95 99.627451 
L 333 99.627451 
L 319.05 99.627451 
L 312.30455 99.627451 
L 312.30455 100.385224 
L 312.30455 101.142996 
L 312.30455 101.900768 
L 312.30455 102.65854 
L 312.30455 103.416313 
L 312.30455 104.174085 
L 312.30455 104.931857 
L 312.30455 105.68963 
L 312.30455 106.447402 
L 312.30455 107.205174 
L 312.30455 107.962947 
L 312.30455 108.720719 
L 312.30455 109.478491 
L 312.30455 110.236263 
L 312.30455 110.994036 
L 312.30455 111.751808 
L 312.30455 112.50958 
L 312.30455 113.267353 
L 312.30455 114.025125 
L 312.30455 114.782897 
z
"/>
   </g>
   <g id="PathCollection_7">
    <path clip-path="url(#p14fd4d5b9f)" d="M 360.9 114.782897 
L 360.9 114.025125 
L 360.9 113.267353 
L 360.9 112.50958 
L 360.9 111.751808 
L 360.9 110.994036 
L 360.9 110.236263 
L 360.9 109.478491 
L 360.9 108.720719 
L 360.9 107.962947 
L 360.9 107.205174 
L 360.9 106.447402 
L 360.9 105.68963 
L 360.9 104.931857 
L 360.9 104.174085 
L 360.9 103.416313 
L 360.9 102.65854 
L 360.9 101.900768 
L 360.9 101.142996 
L 360.9 100.385224 
L 360.9 99.627451 
L 358.177954 99.627451 
L 358.177954 100.385224 
L 358.177954 101.142996 
L 358.177954 101.900768 
L 358.177954 102.65854 
L 358.177954 103.416313 
L 358.177954 104.174085 
L 358.177954 104.931857 
L 358.177954 105.68963 
L 358.177954 106.447402 
L 358.177954 107.205174 
L 358.177954 107.962947 
L 358.177954 108.720719 
L 358.177954 109.478491 
L 358.177954 110.236263 
L 358.177954 110.994036 
L 358.177954 111.751808 
L 358.177954 112.50958 
L 358.177954 113.267353 
L 358.177954 114.025125 
L 358.177954 114.782897 
z
"/>
   </g>
   <g id="PolyCollection_1">
    <defs>
     <path d="M 81.9 -188.372549 
L 81.9 -174.228189 
L 95.85 -174.595408 
L 109.8 -175.153528 
L 123.75 -175.85572 
L 137.7 -176.663811 
L 151.65 -177.547001 
L 165.6 -178.480795 
L 179.55 -179.445665 
L 193.5 -180.426026 
L 207.45 -181.409111 
L 221.4 -182.384003 
L 235.35 -183.340541 
L 249.3 -184.2681 
L 263.25 -185.154243 
L 277.2 -185.983579 
L 291.15 -186.736466 
L 305.1 -187.387736 
L 319.05 -187.905506 
L 333 -188.250094 
L 346.95 -188.372549 
L 360.9 -188.213634 
L 360.9 -188.372549 
L 360.9 -188.372549 
L 346.95 -188.372549 
L 333 -188.372549 
L 319.05 -188.372549 
L 305.1 -188.372549 
L 291.15 -188.372549 
L 277.2 -188.372549 
L 263.25 -188.372549 
L 249.3 -188.372549 
L 235.35 -188.372549 
L 221.4 -188.372549 
L 207.45 -188.372549 
L 193.5 -188.372549 
L 179.55 -188.372549 
L 165.6 -188.372549 
L 151.65 -188.372549 
L 137.7 -188.372549 
L 123.75 -188.372549 
L 109.8 -188.372549 
L 95.85 -188.372549 
L 81.9 -188.372549 
z
" id="m86b70ea2df" style="stroke:#ffffff;"/>
    </defs>
    <g clip-path="url(#p14fd4d5b9f)">
     <use style="fill:#ffffff;stroke:#ffffff;" x="0" xlink:href="#m86b70ea2df" y="288"/>
    </g>
   </g>
   <g id="PolyCollection_2">
    <defs>
     <path d="M 81.9 -173.217103 
L 81.9 -173.217103 
L 95.85 -173.217103 
L 109.8 -173.217103 
L 123.75 -173.217103 
L 137.7 -173.217103 
L 151.65 -173.217103 
L 165.6 -173.217103 
L 179.55 -173.217103 
L 193.5 -173.217103 
L 207.45 -173.217103 
L 221.4 -173.217103 
L 235.35 -173.217103 
L 249.3 -173.217103 
L 263.25 -173.217103 
L 277.2 -173.217103 
L 291.15 -173.217103 
L 305.1 -173.217103 
L 319.05 -173.217103 
L 333 -173.217103 
L 346.95 -173.217103 
L 360.9 -173.217103 
L 360.9 -187.131342 
L 360.9 -187.131342 
L 346.95 -187.292934 
L 333 -187.173259 
L 319.05 -186.831621 
L 305.1 -186.316907 
L 291.15 -185.668869 
L 277.2 -184.919333 
L 263.25 -184.093474 
L 249.3 -183.211108 
L 235.35 -182.287868 
L 221.4 -181.336329 
L 207.45 -180.367258 
L 193.5 -179.390665 
L 179.55 -178.416928 
L 165.6 -177.458052 
L 151.65 -176.529049 
L 137.7 -175.649183 
L 123.75 -174.843069 
L 109.8 -174.141809 
L 95.85 -173.584077 
L 81.9 -173.217103 
z
" id="mbdbb5734c5" style="stroke:#ffffff;"/>
    </defs>
    <g clip-path="url(#p14fd4d5b9f)">
     <use style="fill:#ffffff;stroke:#ffffff;" x="0" xlink:href="#mbdbb5734c5" y="288"/>
    </g>
   </g>
   <g id="matplotlib.axis_1">
    <g id="xtick_1">
     <g id="line2d_1">
      <defs>
       <path d="M 0 0 
L 0 3.5 
" id="m8154cb8968" style="stroke:#000000;stroke-width:0.8;"/>
      </defs>
      <g>
       <use style="stroke:#000000;stroke-width:0.8;" x="81.9" xlink:href="#m8154cb8968" y="252"/>
      </g>
     </g>
     <g id="text_1">
      <!-- 2000 -->
      <g transform="translate(69.175 266.598437)scale(0.1 -0.1)">
       <defs>
        <path d="M 1228 531 
L 3431 531 
L 3431 0 
L 469 0 
L 469 531 
Q 828 903 1448 1529 
Q 2069 2156 2228 2338 
Q 2531 2678 2651 2914 
Q 2772 3150 2772 3378 
Q 2772 3750 2511 3984 
Q 2250 4219 1831 4219 
Q 1534 4219 1204 4116 
Q 875 4013 500 3803 
L 500 4441 
Q 881 4594 1212 4672 
Q 1544 4750 1819 4750 
Q 2544 4750 2975 4387 
Q 3406 4025 3406 3419 
Q 3406 3131 3298 2873 
Q 3191 2616 2906 2266 
Q 2828 2175 2409 1742 
Q 1991 1309 1228 531 
z
" id="DejaVuSans-32" transform="scale(0.015625)"/>
        <path d="M 2034 4250 
Q 1547 4250 1301 3770 
Q 1056 3291 1056 2328 
Q 1056 1369 1301 889 
Q 1547 409 2034 409 
Q 2525 409 2770 889 
Q 3016 1369 3016 2328 
Q 3016 3291 2770 3770 
Q 2525 4250 2034 4250 
z
M 2034 4750 
Q 2819 4750 3233 4129 
Q 3647 3509 3647 2328 
Q 3647 1150 3233 529 
Q 2819 -91 2034 -91 
Q 1250 -91 836 529 
Q 422 1150 422 2328 
Q 422 3509 836 4129 
Q 1250 4750 2034 4750 
z
" id="DejaVuSans-30" transform="scale(0.015625)"/>
       </defs>
       <use xlink:href="#DejaVuSans-32"/>
       <use x="63.623047" xlink:href="#DejaVuSans-30"/>
       <use x="127.246094" xlink:href="#DejaVuSans-30"/>
       <use x="190.869141" xlink:href="#DejaVuSans-30"/>
      </g>
     </g>
    </g>
    <g id="xtick_2">
     <g id="line2d_2">
      <g>
       <use style="stroke:#000000;stroke-width:0.8;" x="151.65" xlink:href="#m8154cb8968" y="252"/>
      </g>
     </g>
     <g id="text_2">
      <!-- 2005 -->
      <g transform="translate(138.925 266.598437)scale(0.1 -0.1)">
       <defs>
        <path d="M 691 4666 
L 3169 4666 
L 3169 4134 
L 1269 4134 
L 1269 2991 
Q 1406 3038 1543 3061 
Q 1681 3084 1819 3084 
Q 2600 3084 3056 2656 
Q 3513 2228 3513 1497 
Q 3513 744 3044 326 
Q 2575 -91 1722 -91 
Q 1428 -91 1123 -41 
Q 819 9 494 109 
L 494 744 
Q 775 591 1075 516 
Q 1375 441 1709 441 
Q 2250 441 2565 725 
Q 2881 1009 2881 1497 
Q 2881 1984 2565 2268 
Q 2250 2553 1709 2553 
Q 1456 2553 1204 2497 
Q 953 2441 691 2322 
L 691 4666 
z
" id="DejaVuSans-35" transform="scale(0.015625)"/>
       </defs>
       <use xlink:href="#DejaVuSans-32"/>
       <use x="63.623047" xlink:href="#DejaVuSans-30"/>
       <use x="127.246094" xlink:href="#DejaVuSans-30"/>
       <use x="190.869141" xlink:href="#DejaVuSans-35"/>
      </g>
     </g>
    </g>
    <g id="xtick_3">
     <g id="line2d_3">
      <g>
       <use style="stroke:#000000;stroke-width:0.8;" x="221.4" xlink:href="#m8154cb8968" y="252"/>
      </g>
     </g>
     <g id="text_3">
      <!-- 2010 -->
      <g transform="translate(208.675 266.598437)scale(0.1 -0.1)">
       <defs>
        <path d="M 794 531 
L 1825 531 
L 1825 4091 
L 703 3866 
L 703 4441 
L 1819 4666 
L 2450 4666 
L 2450 531 
L 3481 531 
L 3481 0 
L 794 0 
L 794 531 
z
" id="DejaVuSans-31" transform="scale(0.015625)"/>
       </defs>
       <use xlink:href="#DejaVuSans-32"/>
       <use x="63.623047" xlink:href="#DejaVuSans-30"/>
       <use x="127.246094" xlink:href="#DejaVuSans-31"/>
       <use x="190.869141" xlink:href="#DejaVuSans-30"/>
      </g>
     </g>
    </g>
    <g id="xtick_4">
     <g id="line2d_4">
      <g>
       <use style="stroke:#000000;stroke-width:0.8;" x="291.15" xlink:href="#m8154cb8968" y="252"/>
      </g>
     </g>
     <g id="text_4">
      <!-- 2015 -->
      <g transform="translate(278.425 266.598437)scale(0.1 -0.1)">
       <use xlink:href="#DejaVuSans-32"/>
       <use x="63.623047" xlink:href="#DejaVuSans-30"/>
       <use x="127.246094" xlink:href="#DejaVuSans-31"/>
       <use x="190.869141" xlink:href="#DejaVuSans-35"/>
      </g>
     </g>
    </g>
    <g id="xtick_5">
     <g id="line2d_5">
      <g>
       <use style="stroke:#000000;stroke-width:0.8;" x="360.9" xlink:href="#m8154cb8968" y="252"/>
      </g>
     </g>
     <g id="text_5">
      <!-- 2020 -->
      <g transform="translate(348.175 266.598437)scale(0.1 -0.1)">
       <use xlink:href="#DejaVuSans-32"/>
       <use x="63.623047" xlink:href="#DejaVuSans-30"/>
       <use x="127.246094" xlink:href="#DejaVuSans-32"/>
       <use x="190.869141" xlink:href="#DejaVuSans-30"/>
      </g>
     </g>
    </g>
    <g id="text_6">
     <!-- Year -->
     <g transform="translate(210.8125 280.276563)scale(0.1 -0.1)">
      <defs>
       <path d="M -13 4666 
L 666 4666 
L 1959 2747 
L 3244 4666 
L 3922 4666 
L 2272 2222 
L 2272 0 
L 1638 0 
L 1638 2222 
L -13 4666 
z
" id="DejaVuSans-59" transform="scale(0.015625)"/>
       <path d="M 3597 1894 
L 3597 1613 
L 953 1613 
Q 991 1019 1311 708 
Q 1631 397 2203 397 
Q 2534 397 2845 478 
Q 3156 559 3463 722 
L 3463 178 
Q 3153 47 2828 -22 
Q 2503 -91 2169 -91 
Q 1331 -91 842 396 
Q 353 884 353 1716 
Q 353 2575 817 3079 
Q 1281 3584 2069 3584 
Q 2775 3584 3186 3129 
Q 3597 2675 3597 1894 
z
M 3022 2063 
Q 3016 2534 2758 2815 
Q 2500 3097 2075 3097 
Q 1594 3097 1305 2825 
Q 1016 2553 972 2059 
L 3022 2063 
z
" id="DejaVuSans-65" transform="scale(0.015625)"/>
       <path d="M 2194 1759 
Q 1497 1759 1228 1600 
Q 959 1441 959 1056 
Q 959 750 1161 570 
Q 1363 391 1709 391 
Q 2188 391 2477 730 
Q 2766 1069 2766 1631 
L 2766 1759 
L 2194 1759 
z
M 3341 1997 
L 3341 0 
L 2766 0 
L 2766 531 
Q 2569 213 2275 61 
Q 1981 -91 1556 -91 
Q 1019 -91 701 211 
Q 384 513 384 1019 
Q 384 1609 779 1909 
Q 1175 2209 1959 2209 
L 2766 2209 
L 2766 2266 
Q 2766 2663 2505 2880 
Q 2244 3097 1772 3097 
Q 1472 3097 1187 3025 
Q 903 2953 641 2809 
L 641 3341 
Q 956 3463 1253 3523 
Q 1550 3584 1831 3584 
Q 2591 3584 2966 3190 
Q 3341 2797 3341 1997 
z
" id="DejaVuSans-61" transform="scale(0.015625)"/>
       <path d="M 2631 2963 
Q 2534 3019 2420 3045 
Q 2306 3072 2169 3072 
Q 1681 3072 1420 2755 
Q 1159 2438 1159 1844 
L 1159 0 
L 581 0 
L 581 3500 
L 1159 3500 
L 1159 2956 
Q 1341 3275 1631 3429 
Q 1922 3584 2338 3584 
Q 2397 3584 2469 3576 
Q 2541 3569 2628 3553 
L 2631 2963 
z
" id="DejaVuSans-72" transform="scale(0.015625)"/>
      </defs>
      <use xlink:href="#DejaVuSans-59"/>
      <use x="47.833984" xlink:href="#DejaVuSans-65"/>
      <use x="109.357422" xlink:href="#DejaVuSans-61"/>
      <use x="170.636719" xlink:href="#DejaVuSans-72"/>
     </g>
    </g>
   </g>
   <g id="matplotlib.axis_2">
    <g id="ytick_1">
     <g id="line2d_6">
      <defs>
       <path d="M 0 0 
L -3.5 0 
" id="me3bca65f87" style="stroke:#000000;stroke-width:0.8;"/>
      </defs>
      <g>
       <use style="stroke:#000000;stroke-width:0.8;" x="54" xlink:href="#me3bca65f87" y="252"/>
      </g>
     </g>
     <g id="text_7">
      <!-- 0 -->
      <g transform="translate(40.6375 255.799219)scale(0.1 -0.1)">
       <use xlink:href="#DejaVuSans-30"/>
      </g>
     </g>
    </g>
    <g id="ytick_2">
     <g id="line2d_7">
      <g>
       <use style="stroke:#000000;stroke-width:0.8;" x="54" xlink:href="#me3bca65f87" y="212.465455"/>
      </g>
     </g>
     <g id="text_8">
      <!-- 20 -->
      <g transform="translate(34.275 216.264673)scale(0.1 -0.1)">
       <use xlink:href="#DejaVuSans-32"/>
       <use x="63.623047" xlink:href="#DejaVuSans-30"/>
      </g>
     </g>
    </g>
    <g id="ytick_3">
     <g id="line2d_8">
      <g>
       <use style="stroke:#000000;stroke-width:0.8;" x="54" xlink:href="#me3bca65f87" y="172.930909"/>
      </g>
     </g>
     <g id="text_9">
      <!-- 40 -->
      <g transform="translate(34.275 176.730128)scale(0.1 -0.1)">
       <defs>
        <path d="M 2419 4116 
L 825 1625 
L 2419 1625 
L 2419 4116 
z
M 2253 4666 
L 3047 4666 
L 3047 1625 
L 3713 1625 
L 3713 1100 
L 3047 1100 
L 3047 0 
L 2419 0 
L 2419 1100 
L 313 1100 
L 313 1709 
L 2253 4666 
z
" id="DejaVuSans-34" transform="scale(0.015625)"/>
       </defs>
       <use xlink:href="#DejaVuSans-34"/>
       <use x="63.623047" xlink:href="#DejaVuSans-30"/>
      </g>
     </g>
    </g>
    <g id="ytick_4">
     <g id="line2d_9">
      <g>
       <use style="stroke:#000000;stroke-width:0.8;" x="54" xlink:href="#me3bca65f87" y="133.396364"/>
      </g>
     </g>
     <g id="text_10">
      <!-- 60 -->
      <g transform="translate(34.275 137.195582)scale(0.1 -0.1)">
       <defs>
        <path d="M 2113 2584 
Q 1688 2584 1439 2293 
Q 1191 2003 1191 1497 
Q 1191 994 1439 701 
Q 1688 409 2113 409 
Q 2538 409 2786 701 
Q 3034 994 3034 1497 
Q 3034 2003 2786 2293 
Q 2538 2584 2113 2584 
z
M 3366 4563 
L 3366 3988 
Q 3128 4100 2886 4159 
Q 2644 4219 2406 4219 
Q 1781 4219 1451 3797 
Q 1122 3375 1075 2522 
Q 1259 2794 1537 2939 
Q 1816 3084 2150 3084 
Q 2853 3084 3261 2657 
Q 3669 2231 3669 1497 
Q 3669 778 3244 343 
Q 2819 -91 2113 -91 
Q 1303 -91 875 529 
Q 447 1150 447 2328 
Q 447 3434 972 4092 
Q 1497 4750 2381 4750 
Q 2619 4750 2861 4703 
Q 3103 4656 3366 4563 
z
" id="DejaVuSans-36" transform="scale(0.015625)"/>
       </defs>
       <use xlink:href="#DejaVuSans-36"/>
       <use x="63.623047" xlink:href="#DejaVuSans-30"/>
      </g>
     </g>
    </g>
    <g id="ytick_5">
     <g id="line2d_10">
      <g>
       <use style="stroke:#000000;stroke-width:0.8;" x="54" xlink:href="#me3bca65f87" y="93.861818"/>
      </g>
     </g>
     <g id="text_11">
      <!-- 80 -->
      <g transform="translate(34.275 97.661037)scale(0.1 -0.1)">
       <defs>
        <path d="M 2034 2216 
Q 1584 2216 1326 1975 
Q 1069 1734 1069 1313 
Q 1069 891 1326 650 
Q 1584 409 2034 409 
Q 2484 409 2743 651 
Q 3003 894 3003 1313 
Q 3003 1734 2745 1975 
Q 2488 2216 2034 2216 
z
M 1403 2484 
Q 997 2584 770 2862 
Q 544 3141 544 3541 
Q 544 4100 942 4425 
Q 1341 4750 2034 4750 
Q 2731 4750 3128 4425 
Q 3525 4100 3525 3541 
Q 3525 3141 3298 2862 
Q 3072 2584 2669 2484 
Q 3125 2378 3379 2068 
Q 3634 1759 3634 1313 
Q 3634 634 3220 271 
Q 2806 -91 2034 -91 
Q 1263 -91 848 271 
Q 434 634 434 1313 
Q 434 1759 690 2068 
Q 947 2378 1403 2484 
z
M 1172 3481 
Q 1172 3119 1398 2916 
Q 1625 2713 2034 2713 
Q 2441 2713 2670 2916 
Q 2900 3119 2900 3481 
Q 2900 3844 2670 4047 
Q 2441 4250 2034 4250 
Q 1625 4250 1398 4047 
Q 1172 3844 1172 3481 
z
" id="DejaVuSans-38" transform="scale(0.015625)"/>
       </defs>
       <use xlink:href="#DejaVuSans-38"/>
       <use x="63.623047" xlink:href="#DejaVuSans-30"/>
      </g>
     </g>
    </g>
    <g id="ytick_6">
     <g id="line2d_11">
      <g>
       <use style="stroke:#000000;stroke-width:0.8;" x="54" xlink:href="#me3bca65f87" y="54.327273"/>
      </g>
     </g>
     <g id="text_12">
      <!-- 100 -->
      <g transform="translate(27.9125 58.126491)scale(0.1 -0.1)">
       <use xlink:href="#DejaVuSans-31"/>
       <use x="63.623047" xlink:href="#DejaVuSans-30"/>
       <use x="127.246094" xlink:href="#DejaVuSans-30"/>
      </g>
     </g>
    </g>
    <g id="text_13">
     <!-- Proportion of water that is safetly managed -->
     <g transform="translate(21.832812 252.228438)rotate(-90)scale(0.1 -0.1)">
      <defs>
       <path d="M 1259 4147 
L 1259 2394 
L 2053 2394 
Q 2494 2394 2734 2622 
Q 2975 2850 2975 3272 
Q 2975 3691 2734 3919 
Q 2494 4147 2053 4147 
L 1259 4147 
z
M 628 4666 
L 2053 4666 
Q 2838 4666 3239 4311 
Q 3641 3956 3641 3272 
Q 3641 2581 3239 2228 
Q 2838 1875 2053 1875 
L 1259 1875 
L 1259 0 
L 628 0 
L 628 4666 
z
" id="DejaVuSans-50" transform="scale(0.015625)"/>
       <path d="M 1959 3097 
Q 1497 3097 1228 2736 
Q 959 2375 959 1747 
Q 959 1119 1226 758 
Q 1494 397 1959 397 
Q 2419 397 2687 759 
Q 2956 1122 2956 1747 
Q 2956 2369 2687 2733 
Q 2419 3097 1959 3097 
z
M 1959 3584 
Q 2709 3584 3137 3096 
Q 3566 2609 3566 1747 
Q 3566 888 3137 398 
Q 2709 -91 1959 -91 
Q 1206 -91 779 398 
Q 353 888 353 1747 
Q 353 2609 779 3096 
Q 1206 3584 1959 3584 
z
" id="DejaVuSans-6f" transform="scale(0.015625)"/>
       <path d="M 1159 525 
L 1159 -1331 
L 581 -1331 
L 581 3500 
L 1159 3500 
L 1159 2969 
Q 1341 3281 1617 3432 
Q 1894 3584 2278 3584 
Q 2916 3584 3314 3078 
Q 3713 2572 3713 1747 
Q 3713 922 3314 415 
Q 2916 -91 2278 -91 
Q 1894 -91 1617 61 
Q 1341 213 1159 525 
z
M 3116 1747 
Q 3116 2381 2855 2742 
Q 2594 3103 2138 3103 
Q 1681 3103 1420 2742 
Q 1159 2381 1159 1747 
Q 1159 1113 1420 752 
Q 1681 391 2138 391 
Q 2594 391 2855 752 
Q 3116 1113 3116 1747 
z
" id="DejaVuSans-70" transform="scale(0.015625)"/>
       <path d="M 1172 4494 
L 1172 3500 
L 2356 3500 
L 2356 3053 
L 1172 3053 
L 1172 1153 
Q 1172 725 1289 603 
Q 1406 481 1766 481 
L 2356 481 
L 2356 0 
L 1766 0 
Q 1100 0 847 248 
Q 594 497 594 1153 
L 594 3053 
L 172 3053 
L 172 3500 
L 594 3500 
L 594 4494 
L 1172 4494 
z
" id="DejaVuSans-74" transform="scale(0.015625)"/>
       <path d="M 603 3500 
L 1178 3500 
L 1178 0 
L 603 0 
L 603 3500 
z
M 603 4863 
L 1178 4863 
L 1178 4134 
L 603 4134 
L 603 4863 
z
" id="DejaVuSans-69" transform="scale(0.015625)"/>
       <path d="M 3513 2113 
L 3513 0 
L 2938 0 
L 2938 2094 
Q 2938 2591 2744 2837 
Q 2550 3084 2163 3084 
Q 1697 3084 1428 2787 
Q 1159 2491 1159 1978 
L 1159 0 
L 581 0 
L 581 3500 
L 1159 3500 
L 1159 2956 
Q 1366 3272 1645 3428 
Q 1925 3584 2291 3584 
Q 2894 3584 3203 3211 
Q 3513 2838 3513 2113 
z
" id="DejaVuSans-6e" transform="scale(0.015625)"/>
       <path id="DejaVuSans-20" transform="scale(0.015625)"/>
       <path d="M 2375 4863 
L 2375 4384 
L 1825 4384 
Q 1516 4384 1395 4259 
Q 1275 4134 1275 3809 
L 1275 3500 
L 2222 3500 
L 2222 3053 
L 1275 3053 
L 1275 0 
L 697 0 
L 697 3053 
L 147 3053 
L 147 3500 
L 697 3500 
L 697 3744 
Q 697 4328 969 4595 
Q 1241 4863 1831 4863 
L 2375 4863 
z
" id="DejaVuSans-66" transform="scale(0.015625)"/>
       <path d="M 269 3500 
L 844 3500 
L 1563 769 
L 2278 3500 
L 2956 3500 
L 3675 769 
L 4391 3500 
L 4966 3500 
L 4050 0 
L 3372 0 
L 2619 2869 
L 1863 0 
L 1184 0 
L 269 3500 
z
" id="DejaVuSans-77" transform="scale(0.015625)"/>
       <path d="M 3513 2113 
L 3513 0 
L 2938 0 
L 2938 2094 
Q 2938 2591 2744 2837 
Q 2550 3084 2163 3084 
Q 1697 3084 1428 2787 
Q 1159 2491 1159 1978 
L 1159 0 
L 581 0 
L 581 4863 
L 1159 4863 
L 1159 2956 
Q 1366 3272 1645 3428 
Q 1925 3584 2291 3584 
Q 2894 3584 3203 3211 
Q 3513 2838 3513 2113 
z
" id="DejaVuSans-68" transform="scale(0.015625)"/>
       <path d="M 2834 3397 
L 2834 2853 
Q 2591 2978 2328 3040 
Q 2066 3103 1784 3103 
Q 1356 3103 1142 2972 
Q 928 2841 928 2578 
Q 928 2378 1081 2264 
Q 1234 2150 1697 2047 
L 1894 2003 
Q 2506 1872 2764 1633 
Q 3022 1394 3022 966 
Q 3022 478 2636 193 
Q 2250 -91 1575 -91 
Q 1294 -91 989 -36 
Q 684 19 347 128 
L 347 722 
Q 666 556 975 473 
Q 1284 391 1588 391 
Q 1994 391 2212 530 
Q 2431 669 2431 922 
Q 2431 1156 2273 1281 
Q 2116 1406 1581 1522 
L 1381 1569 
Q 847 1681 609 1914 
Q 372 2147 372 2553 
Q 372 3047 722 3315 
Q 1072 3584 1716 3584 
Q 2034 3584 2315 3537 
Q 2597 3491 2834 3397 
z
" id="DejaVuSans-73" transform="scale(0.015625)"/>
       <path d="M 603 4863 
L 1178 4863 
L 1178 0 
L 603 0 
L 603 4863 
z
" id="DejaVuSans-6c" transform="scale(0.015625)"/>
       <path d="M 2059 -325 
Q 1816 -950 1584 -1140 
Q 1353 -1331 966 -1331 
L 506 -1331 
L 506 -850 
L 844 -850 
Q 1081 -850 1212 -737 
Q 1344 -625 1503 -206 
L 1606 56 
L 191 3500 
L 800 3500 
L 1894 763 
L 2988 3500 
L 3597 3500 
L 2059 -325 
z
" id="DejaVuSans-79" transform="scale(0.015625)"/>
       <path d="M 3328 2828 
Q 3544 3216 3844 3400 
Q 4144 3584 4550 3584 
Q 5097 3584 5394 3201 
Q 5691 2819 5691 2113 
L 5691 0 
L 5113 0 
L 5113 2094 
Q 5113 2597 4934 2840 
Q 4756 3084 4391 3084 
Q 3944 3084 3684 2787 
Q 3425 2491 3425 1978 
L 3425 0 
L 2847 0 
L 2847 2094 
Q 2847 2600 2669 2842 
Q 2491 3084 2119 3084 
Q 1678 3084 1418 2786 
Q 1159 2488 1159 1978 
L 1159 0 
L 581 0 
L 581 3500 
L 1159 3500 
L 1159 2956 
Q 1356 3278 1631 3431 
Q 1906 3584 2284 3584 
Q 2666 3584 2933 3390 
Q 3200 3197 3328 2828 
z
" id="DejaVuSans-6d" transform="scale(0.015625)"/>
       <path d="M 2906 1791 
Q 2906 2416 2648 2759 
Q 2391 3103 1925 3103 
Q 1463 3103 1205 2759 
Q 947 2416 947 1791 
Q 947 1169 1205 825 
Q 1463 481 1925 481 
Q 2391 481 2648 825 
Q 2906 1169 2906 1791 
z
M 3481 434 
Q 3481 -459 3084 -895 
Q 2688 -1331 1869 -1331 
Q 1566 -1331 1297 -1286 
Q 1028 -1241 775 -1147 
L 775 -588 
Q 1028 -725 1275 -790 
Q 1522 -856 1778 -856 
Q 2344 -856 2625 -561 
Q 2906 -266 2906 331 
L 2906 616 
Q 2728 306 2450 153 
Q 2172 0 1784 0 
Q 1141 0 747 490 
Q 353 981 353 1791 
Q 353 2603 747 3093 
Q 1141 3584 1784 3584 
Q 2172 3584 2450 3431 
Q 2728 3278 2906 2969 
L 2906 3500 
L 3481 3500 
L 3481 434 
z
" id="DejaVuSans-67" transform="scale(0.015625)"/>
       <path d="M 2906 2969 
L 2906 4863 
L 3481 4863 
L 3481 0 
L 2906 0 
L 2906 525 
Q 2725 213 2448 61 
Q 2172 -91 1784 -91 
Q 1150 -91 751 415 
Q 353 922 353 1747 
Q 353 2572 751 3078 
Q 1150 3584 1784 3584 
Q 2172 3584 2448 3432 
Q 2725 3281 2906 2969 
z
M 947 1747 
Q 947 1113 1208 752 
Q 1469 391 1925 391 
Q 2381 391 2643 752 
Q 2906 1113 2906 1747 
Q 2906 2381 2643 2742 
Q 2381 3103 1925 3103 
Q 1469 3103 1208 2742 
Q 947 2381 947 1747 
z
" id="DejaVuSans-64" transform="scale(0.015625)"/>
      </defs>
      <use xlink:href="#DejaVuSans-50"/>
      <use x="58.552734" xlink:href="#DejaVuSans-72"/>
      <use x="97.416016" xlink:href="#DejaVuSans-6f"/>
      <use x="158.597656" xlink:href="#DejaVuSans-70"/>
      <use x="222.074219" xlink:href="#DejaVuSans-6f"/>
      <use x="283.255859" xlink:href="#DejaVuSans-72"/>
      <use x="324.369141" xlink:href="#DejaVuSans-74"/>
      <use x="363.578125" xlink:href="#DejaVuSans-69"/>
      <use x="391.361328" xlink:href="#DejaVuSans-6f"/>
      <use x="452.542969" xlink:href="#DejaVuSans-6e"/>
      <use x="515.921875" xlink:href="#DejaVuSans-20"/>
      <use x="547.708984" xlink:href="#DejaVuSans-6f"/>
      <use x="608.890625" xlink:href="#DejaVuSans-66"/>
      <use x="644.095703" xlink:href="#DejaVuSans-20"/>
      <use x="675.882812" xlink:href="#DejaVuSans-77"/>
      <use x="757.669922" xlink:href="#DejaVuSans-61"/>
      <use x="818.949219" xlink:href="#DejaVuSans-74"/>
      <use x="858.158203" xlink:href="#DejaVuSans-65"/>
      <use x="919.681641" xlink:href="#DejaVuSans-72"/>
      <use x="960.794922" xlink:href="#DejaVuSans-20"/>
      <use x="992.582031" xlink:href="#DejaVuSans-74"/>
      <use x="1031.791016" xlink:href="#DejaVuSans-68"/>
      <use x="1095.169922" xlink:href="#DejaVuSans-61"/>
      <use x="1156.449219" xlink:href="#DejaVuSans-74"/>
      <use x="1195.658203" xlink:href="#DejaVuSans-20"/>
      <use x="1227.445312" xlink:href="#DejaVuSans-69"/>
      <use x="1255.228516" xlink:href="#DejaVuSans-73"/>
      <use x="1307.328125" xlink:href="#DejaVuSans-20"/>
      <use x="1339.115234" xlink:href="#DejaVuSans-73"/>
      <use x="1391.214844" xlink:href="#DejaVuSans-61"/>
      <use x="1452.494141" xlink:href="#DejaVuSans-66"/>
      <use x="1487.699219" xlink:href="#DejaVuSans-65"/>
      <use x="1549.222656" xlink:href="#DejaVuSans-74"/>
      <use x="1588.431641" xlink:href="#DejaVuSans-6c"/>
      <use x="1616.214844" xlink:href="#DejaVuSans-79"/>
      <use x="1675.394531" xlink:href="#DejaVuSans-20"/>
      <use x="1707.181641" xlink:href="#DejaVuSans-6d"/>
      <use x="1804.59375" xlink:href="#DejaVuSans-61"/>
      <use x="1865.873047" xlink:href="#DejaVuSans-6e"/>
      <use x="1929.251953" xlink:href="#DejaVuSans-61"/>
      <use x="1990.53125" xlink:href="#DejaVuSans-67"/>
      <use x="2054.007812" xlink:href="#DejaVuSans-65"/>
      <use x="2115.53125" xlink:href="#DejaVuSans-64"/>
     </g>
    </g>
   </g>
   <g id="line2d_12">
    <path clip-path="url(#p14fd4d5b9f)" d="M 81.9 114.277354 
L 95.85 113.910258 
L 109.8 113.352331 
L 123.75 112.650605 
L 137.7 111.843503 
L 151.65 110.961975 
L 165.6 110.030577 
L 179.55 109.068703 
L 193.5 108.091655 
L 207.45 107.111816 
L 221.4 106.139834 
L 235.35 105.185795 
L 249.3 104.260396 
L 263.25 103.376142 
L 277.2 102.548544 
L 291.15 101.797333 
L 305.1 101.147678 
L 319.05 100.631436 
L 333 100.288323 
L 346.95 100.167259 
L 360.9 100.327512 
" style="fill:none;stroke:#ffffff;stroke-linecap:square;stroke-width:1.5;"/>
   </g>
   <g id="patch_3">
    <path d="M 54 252 
L 54 34.56 
" style="fill:none;stroke:#000000;stroke-linecap:square;stroke-linejoin:miter;stroke-width:0.8;"/>
   </g>
   <g id="patch_4">
    <path d="M 388.8 252 
L 388.8 34.56 
" style="fill:none;stroke:#000000;stroke-linecap:square;stroke-linejoin:miter;stroke-width:0.8;"/>
   </g>
   <g id="patch_5">
    <path d="M 54 252 
L 388.8 252 
" style="fill:none;stroke:#000000;stroke-linecap:square;stroke-linejoin:miter;stroke-width:0.8;"/>
   </g>
   <g id="patch_6">
    <path d="M 54 34.56 
L 388.8 34.56 
" style="fill:none;stroke:#000000;stroke-linecap:square;stroke-linejoin:miter;stroke-width:0.8;"/>
   </g>
   <g id="text_14">
    <!-- Change in saftely managed water per Continent -->
    <g transform="translate(76.740938 28.56)scale(0.12 -0.12)">
     <defs>
      <path d="M 4122 4306 
L 4122 3641 
Q 3803 3938 3442 4084 
Q 3081 4231 2675 4231 
Q 1875 4231 1450 3742 
Q 1025 3253 1025 2328 
Q 1025 1406 1450 917 
Q 1875 428 2675 428 
Q 3081 428 3442 575 
Q 3803 722 4122 1019 
L 4122 359 
Q 3791 134 3420 21 
Q 3050 -91 2638 -91 
Q 1578 -91 968 557 
Q 359 1206 359 2328 
Q 359 3453 968 4101 
Q 1578 4750 2638 4750 
Q 3056 4750 3426 4639 
Q 3797 4528 4122 4306 
z
" id="DejaVuSans-43" transform="scale(0.015625)"/>
     </defs>
     <use xlink:href="#DejaVuSans-43"/>
     <use x="69.824219" xlink:href="#DejaVuSans-68"/>
     <use x="133.203125" xlink:href="#DejaVuSans-61"/>
     <use x="194.482422" xlink:href="#DejaVuSans-6e"/>
     <use x="257.861328" xlink:href="#DejaVuSans-67"/>
     <use x="321.337891" xlink:href="#DejaVuSans-65"/>
     <use x="382.861328" xlink:href="#DejaVuSans-20"/>
     <use x="414.648438" xlink:href="#DejaVuSans-69"/>
     <use x="442.431641" xlink:href="#DejaVuSans-6e"/>
     <use x="505.810547" xlink:href="#DejaVuSans-20"/>
     <use x="537.597656" xlink:href="#DejaVuSans-73"/>
     <use x="589.697266" xlink:href="#DejaVuSans-61"/>
     <use x="650.976562" xlink:href="#DejaVuSans-66"/>
     <use x="684.431641" xlink:href="#DejaVuSans-74"/>
     <use x="723.640625" xlink:href="#DejaVuSans-65"/>
     <use x="785.164062" xlink:href="#DejaVuSans-6c"/>
     <use x="812.947266" xlink:href="#DejaVuSans-79"/>
     <use x="872.126953" xlink:href="#DejaVuSans-20"/>
     <use x="903.914062" xlink:href="#DejaVuSans-6d"/>
     <use x="1001.326172" xlink:href="#DejaVuSans-61"/>
     <use x="1062.605469" xlink:href="#DejaVuSans-6e"/>
     <use x="1125.984375" xlink:href="#DejaVuSans-61"/>
     <use x="1187.263672" xlink:href="#DejaVuSans-67"/>
     <use x="1250.740234" xlink:href="#DejaVuSans-65"/>
     <use x="1312.263672" xlink:href="#DejaVuSans-64"/>
     <use x="1375.740234" xlink:href="#DejaVuSans-20"/>
     <use x="1407.527344" xlink:href="#DejaVuSans-77"/>
     <use x="1489.314453" xlink:href="#DejaVuSans-61"/>
     <use x="1550.59375" xlink:href="#DejaVuSans-74"/>
     <use x="1589.802734" xlink:href="#DejaVuSans-65"/>
     <use x="1651.326172" xlink:href="#DejaVuSans-72"/>
     <use x="1692.439453" xlink:href="#DejaVuSans-20"/>
     <use x="1724.226562" xlink:href="#DejaVuSans-70"/>
     <use x="1787.703125" xlink:href="#DejaVuSans-65"/>
     <use x="1849.226562" xlink:href="#DejaVuSans-72"/>
     <use x="1890.339844" xlink:href="#DejaVuSans-20"/>
     <use x="1922.126953" xlink:href="#DejaVuSans-43"/>
     <use x="1991.951172" xlink:href="#DejaVuSans-6f"/>
     <use x="2053.132812" xlink:href="#DejaVuSans-6e"/>
     <use x="2116.511719" xlink:href="#DejaVuSans-74"/>
     <use x="2155.720703" xlink:href="#DejaVuSans-69"/>
     <use x="2183.503906" xlink:href="#DejaVuSans-6e"/>
     <use x="2246.882812" xlink:href="#DejaVuSans-65"/>
     <use x="2308.40625" xlink:href="#DejaVuSans-6e"/>
     <use x="2371.785156" xlink:href="#DejaVuSans-74"/>
    </g>
   </g>
  </g>
 </g>
 <defs>
  <clipPath id="p14fd4d5b9f">
   <rect height="217.44" width="334.8" x="54" y="34.56"/>
  </clipPath>
 </defs>
</svg>
